<svg width="24" height="24" viewBox="0 0 24 24" fill="none" xmlns="http://www.w3.org/2000/svg">
<path fill-rule="evenodd" clip-rule="evenodd" d="M0 12C0 5.3736 5.3736 0 12 0C18.6264 0 24 5.3736 24 12C24 18.6264 18.6264 24 12 24C5.3736 24 0 18.6264 0 12ZM18.5288 16.5135C18.6991 16.0752 18.8157 15.5744 18.8491 14.8409C18.8828 14.1061 18.8906 13.8713 18.8906 12C18.8906 10.1287 18.8828 9.89392 18.8492 9.15912C18.8157 8.4256 18.6993 7.9248 18.5288 7.48645C18.356 7.02667 18.0846 6.61029 17.7341 6.26605C17.3899 5.91541 16.9733 5.64404 16.5135 5.47101C16.0752 5.3009 15.5744 5.18445 14.8409 5.15112C14.1061 5.11743 13.8713 5.10938 12 5.10938C10.1287 5.10938 9.89392 5.11743 9.15912 5.15094C8.4256 5.18445 7.9248 5.3009 7.48645 5.47119C7.02667 5.64423 6.61011 5.91541 6.26605 6.26605C5.91541 6.61011 5.64404 7.02667 5.47101 7.48645C5.30072 7.9248 5.18427 8.4256 5.15094 9.15912C5.11725 9.89392 5.10938 10.1287 5.10938 12C5.10938 13.8713 5.11725 14.1061 5.15112 14.8411C5.18445 15.5744 5.30109 16.0754 5.47137 16.5135C5.64441 16.9733 5.91559 17.3899 6.26605 17.7339C6.61029 18.0846 7.02667 18.3558 7.48663 18.5288C7.9248 18.6991 8.42578 18.8156 9.15912 18.8491C9.8941 18.8826 10.1287 18.8906 12.0002 18.8906C13.8715 18.8906 14.1063 18.8826 14.8411 18.8491C15.5744 18.8156 16.0754 18.6991 16.5135 18.5288C17.4391 18.1708 18.1708 17.4391 18.5288 16.5135ZM17.3716 7.93609C17.2612 7.63689 17.085 7.36608 16.8561 7.14379C16.6339 6.91491 16.3632 6.73876 16.0638 6.62835C15.821 6.53405 15.4563 6.4218 14.7845 6.39123C14.0577 6.35808 13.8398 6.35094 12 6.35094C10.16 6.35094 9.94208 6.3579 9.21552 6.39104C8.5437 6.4218 8.17877 6.53405 7.93616 6.62835C7.63678 6.73876 7.36597 6.91491 7.14386 7.14379C6.91498 7.36608 6.73883 7.63671 6.62823 7.93609C6.53394 8.17888 6.42169 8.54381 6.39111 9.21563C6.35797 9.94219 6.35083 10.1601 6.35083 12.0001C6.35083 13.84 6.35797 14.0579 6.39111 14.7846C6.42169 15.4564 6.53394 15.8212 6.62823 16.064C6.73883 16.3633 6.91479 16.634 7.14368 16.8563C7.36597 17.0851 7.6366 17.2613 7.93597 17.3717C8.17877 17.4662 8.5437 17.5784 9.21552 17.609C9.94208 17.6421 10.1598 17.6491 11.9998 17.6491C13.84 17.6491 14.0579 17.6421 14.7843 17.609C15.4561 17.5784 15.821 17.4662 16.0638 17.3717C16.6648 17.1399 17.1398 16.6649 17.3716 16.064C17.4659 15.8212 17.5781 15.4564 17.6089 14.7846C17.642 14.0579 17.649 13.84 17.649 12.0001C17.649 10.1601 17.642 9.94219 17.6089 9.21563C17.5783 8.54381 17.4661 8.17888 17.3716 7.93609ZM12 15.5383C10.0457 15.5383 8.46149 13.9542 8.46149 11.9999C8.46149 10.0456 10.0457 8.4616 12 8.4616C13.9541 8.4616 15.5383 10.0456 15.5383 11.9999C15.5383 13.9542 13.9541 15.5383 12 15.5383ZM15.6782 9.14861C15.2216 9.14861 14.8513 8.77837 14.8513 8.32171C14.8513 7.86504 15.2216 7.4948 15.6782 7.4948C16.1349 7.4948 16.5051 7.86504 16.5051 8.32171C16.5049 8.77837 16.1349 9.14861 15.6782 9.14861ZM14.2969 12C14.2969 13.2686 13.2686 14.2969 12 14.2969C10.7314 14.2969 9.70312 13.2686 9.70312 12C9.70312 10.7314 10.7314 9.70312 12 9.70312C13.2686 9.70312 14.2969 10.7314 14.2969 12Z" fill="#c19574"/>
</svg>
